<svg id="visual" viewBox="0 0 900 100" width="900" height="100" xmlns="http://www.w3.org/2000/svg" xmlns:xlink="http://www.w3.org/1999/xlink" version="1.1">
    <path d="M0 36L150 8L300 44L450 14L600 69L750 35L900 72L900 101L750 101L600 101L450 101L300 101L150 101L0 101Z" fill="#242363"></path>
    <path d="M0 89L150 38L300 30L450 79L600 56L750 87L900 89L900 101L750 101L600 101L450 101L300 101L150 101L0 101Z" fill="#2b2a78"></path>
    <path d="M0 65L150 56L300 81L450 63L600 74L750 62L900 87L900 101L750 101L600 101L450 101L300 101L150 101L0 101Z" fill="#33328d"></path>
    <path d="M0 93L150 96L300 79L450 93L600 86L750 70L900 92L900 101L750 101L600 101L450 101L300 101L150 101L0 101Z" fill="#3b39a3"></path>
</svg>